# xmcd
#
# Track frame offsets:
#       150
#       9916
#       24196
#       35364
#       45834
#       60731
#       70573
#       85206
#       98550
#       108256
#       124714
#       136941
#       144888
#       161140
#
# Disc length: 2726 seconds
#
# Revision: 0
# Processed by: cddbd v1.4PL0 Copyright (c) Steve Scherf et al.
# Submitted via: CD-DA_X-Tractor v0.21
#
DISCID=9d0aa40e
DTITLE=Spider John Koerner - Spider Blues
DYEAR=1900
DGENRE=
TTITLE0=Good Luck Child
TTITLE1=I Want to be Your Partner
TTITLE2=Nice Legs
TTITLE3=Spider Blues
TTITLE4=Corrina
TTITLE5=Shortin' Bread
TTITLE6=Ramblin' and Tumblin'
TTITLE7=Delia Holmes
TTITLE8=Need a Woman
TTITLE9=I Want to do Something
TTITLE10=Baby, Don't Come Back
TTITLE11=Hal C. Blake
TTITLE12=Things Ain't Right
TTITLE13=Rent Party Rag
EXTD=
EXTT0=
EXTT1=
EXTT2=
EXTT3=
EXTT4=
EXTT5=
EXTT6=
EXTT7=
EXTT8=
EXTT9=
EXTT10=
EXTT11=
EXTT12=
EXTT13=
PLAYORDER=
